<?xml version="1.0" encoding="UTF-8" standalone="no"?>
<svg viewBox="0 0 128 128" version="1.1" xmlns="http://www.w3.org/2000/svg">
  <path d="m 46.933489,127.89364 q -8.946688,-0.14667 -15.546703,-2.64001 -6.453348,-2.49334 -9.973357,-7.77335 -3.520008,-5.13334 -3.520008,-12.90669 V 83.013536 q 0,-7.480017 -4.693344,-10.560025 Q 8.6533997,69.226837 4.6310425e-5,69.226837 V 58.520146 Q 8.6533997,58.373479 13.200077,55.293471 17.893421,52.213464 17.893421,44.880114 V 23.173397 q 0,-7.773352 3.666675,-12.906697 Q 25.226772,5.1333549 31.826787,2.6400158 38.426802,9.6740723e-6 46.933489,9.6740723e-6 V 10.560034 q -4.986679,0.146667 -8.653354,1.613337 -3.666675,1.46667 -5.720013,4.400011 -1.906671,2.93334 -1.906671,7.773351 v 21.120049 q 0,7.480017 -3.960009,12.026695 -3.96001,4.40001 -12.026695,5.86668 v 0.880002 q 8.213352,1.46667 12.026695,6.013347 3.960009,4.40001 3.960009,11.880028 v 21.560046 q 0,7.18669 4.253343,10.26669 4.253343,3.22668 12.026695,3.37335 z M 81.000306,9.6740723e-6 q 9.093354,0 15.546702,2.6400061259277 6.453352,2.4933391 9.973362,7.6266842 3.52,5.133345 3.52,13.053364 v 21.56005 q 0,7.480017 4.54668,10.706691 4.69334,3.080008 13.3467,3.080008 v 10.706691 q -8.65336,0.146667 -13.3467,3.226674 -4.54668,3.080008 -4.54668,10.413358 v 21.706714 q 0,7.77335 -3.66667,12.9067 -3.66668,5.13334 -10.266693,7.62668 -6.453348,2.64001 -15.106701,2.64001 v -10.56002 q 5.133345,-0.14667 8.653353,-1.61334 3.666675,-1.46667 5.573346,-4.54668 2.053339,-2.93334 2.053339,-7.62668 V 82.426868 q 0,-7.480018 3.960006,-11.880028 3.96001,-4.546677 12.0267,-6.013347 v -0.880002 q -8.06669,-1.46667 -12.0267,-5.86668 -3.960006,-4.546678 -3.960006,-12.026695 v -21.56005 q 0,-7.186683 -4.253344,-10.266691 -4.253343,-3.226674 -12.026694,-3.373341 z" />
  <path d="M 47.113283,4.6616994e-7 92.008724,73.723194 67.444295,72.73878 80.93955,128.33307 38.862336,55.416059 61.018692,54.883875 Z" />
</svg>
